<?xml version="1.0" encoding="utf-8"?>
<!-- Generator: Adobe Illustrator 21.0.0, SVG Export Plug-In . SVG Version: 6.00 Build 0)  -->
<svg version="1.1" id="Modo_de_aislamiento" xmlns="http://www.w3.org/2000/svg" xmlns:xlink="http://www.w3.org/1999/xlink"
	 x="0px" y="0px" viewBox="0 0 354 201" style="enable-background:new 0 0 354 201;" xml:space="preserve">
<style type="text/css">
	.st0{fill:#FFFFFF;}
</style>
<path class="st0" d="M60.9,75.8c2.3,0,4.2,0.5,6.1,0.7c7.5-30.1,34.4-52.7,67-52.7c10.1,0,20,2.3,28.6,6.6
	c11.7-15.1,29.7-25,50.2-25c27.8,0,51.3,18,60.1,42.8c3-0.5,5.8-0.8,9-0.8c35.3,0,63.8,28.5,63.8,63.6c0,35.5-28.6,64-63.8,64
	c-7.4,0-14.2-1.5-20.7-3.7c-9.2,12.4-24,20.4-40.7,20.4c-17.3,0-32.6-8.7-41.9-22c-9.3,13.3-24.5,22-41.9,22
	c-18.8,0-35-10-43.7-24.9c-8.9,7.2-19.8,11.3-32,11.3c-28.3,0-51.1-22.8-51.1-51.1C9.8,98.7,32.6,75.8,60.9,75.8z"/>
</svg>
,0-7.8,0.3-11.7,0.8C336.4,36.1,286,0,227.1,0S117.8,36.1,96.7,87.4
								c-3.8-0.5-7.7-0.8-11.7-0.8c-45.6,0-82.5,36.9-82.5,82.5c0,45.6,36.9,82.5,82.5,82.5h54.7h174.7H354h15.2
								c45.6,0,82.5-36.9,82.5-82.5C451.6,123.5,414.7,86.6,369.1,86.6z"/>
						</defs>
						<clipPath id="SVGID_2_">
							<use xlink:href="#SVGID_1_"  overflow="visible"/>
						</clipPath>
						<g clip-path="url(#SVGID_2_)">
							<circle opacity="0.1" fill="#FFFFFF" cx="83.8" cy="174.3" r="88.8"/>
							<circle opacity="0.1" fill="#FFFFFF" cx="375.6" cy="174.3" r="88.8"/>
						</g>
					</g>
				</g>
			</g>
			<g>
				<g>
					<path d="M280.6,352.4"/>
				</g>
			</g>
			<g>
				<g>
					<g>
						<g>
							<path fill="#FFFFFF" d="M250,509.9"/>
						</g>
					</g>
					<circle fill="#FFFFFF" cx="223" cy="460.1" r="40.5"/>
					<circle opacity="0.1" fill="#FFFFFF" cx="223" cy="460.1" r="40.5"/>
				</g>
			</g>
			<g>
				<g>
					<g>
						<g>
							<path fill="#FFFFFF" d="M188.1,433.7"/>
						</g>
					</g>
					<circle fill="#FFFFFF" cx="159.1" cy="380" r="43.6"/>
					<circle opacity="0.1" fill="#FFFFFF" cx="159.1" cy="380" r="43.6"/>
				</g>
				<g>
					<path fill="#0E1E5C" stroke="#0E1E5C" stroke-width="0.5" stroke-miterlimit="10" d="M249.1,456.7c0.5,0,0.9-0.4,0.9-0.9
						s-0.4-0.9-0.9-0.9c-11,0-20-9-20-20c0-0.5-0.4-0.9-0.9-0.9s-0.9,0.4-0.9,0.9C227.3,447,237.1,456.7,249.1,456.7z"/>
					<path fill="#0E1E5C" stroke="#0E1E5C" stroke-width="0.5" stroke-miterlimit="10" d="M197,465.3c-0.5,0-0.9,0.4-0.9,0.9
						s0.4,0.9,0.9,0.9c11,0,20,9,20,20c0,0.5,0.4,0.9,0.9,0.9c0.5,0,0.9-0.4,0.9-0.9C218.8,475.1,209,465.3,197,465.3z"/>
					<path fill="#0E1E5C" stroke="#0E1E5C" stroke-width="0.5" stroke-miterlimit="10" d="M224.8,470.6c0.5,0,0.9-0.4,0.9-0.9
						c0-0.5-0.4-0.9-0.9-0.9h-0.9v-15.6h0.9c0.5,0,0.9-0.4,0.9-0.9s-0.4-0.9-0.9-0.9h-0.9v-7h0.9c0.5,0,0.9-0.4,0.9-0.9
						s-0.4-0.9-0.9-0.9h-0.9v-7h0.9c0.5,0,0.9-0.4,0.9-0.9s-0.4-0.9-0.9-0.9h-3.4c-0.5,0-0.9,0.4-0.9,0.9s0.4,0.9,0.9,0.9h0.9v7
						h-0.9c-0.5,0-0.9,0.4-0.9,0.9s0.4,0.9,0.9,0.9h0.9v7h-0.9c-0.5,0-0.9,0.4-0.9,0.9s0.4,0.9,0.9,0.9h0.9v7h-7v-0.9
						c0-0.5-0.4-0.9-0.9-0.9s-0.9,0.4-0.9,0.9v0.9h-7v-0.9c0-0.5-0.4-0.9-0.9-0.9s-0.9,0.4-0.9,0.9v0.9h-7v-0.9
						c0-0.5-0.4-0.9-0.9-0.9c-0.5,0-0.9,0.4-0.9,0.9v3.4c0,0.5,0.4,0.9,0.9,0.9c0.5,0,0.9-0.4,0.9-0.9v-0.9h7v0.9
						c0,0.5,0.4,0.9,0.9,0.9s0.9-0.4,0.9-0.9v-0.9h7v0.9c0,0.5,0.4,0.9,0.9,0.9s0.9-0.4,0.9-0.9v-0.9h7v7h-0.9
						c-0.5,0-0.9,0.4-0.9,0.9c0,0.5,0.4,0.9,0.9,0.9h0.9v7h-0.9c-0.5,0-0.9,0.4-0.9,0.9s0.4,0.9,0.9,0.9h0.9v7h-0.9
						c-0.5,0-0.9,0.4-0.9,0.9s0.4,0.9,0.9,0.9h3.4c0.5,0,0.9-0.4,0.9-0.9s-0.4-0.9-0.9-0.9h-0.9v-7h0.9c0.5,0,0.9-0.4,0.9-0.9
						c0-0.5-0.4-0.9-0.9-0.9h-0.9v-7L224.8,470.6L224.8,470.6z"/>
					<path fill="#0E1E5C" stroke="#0E1E5C" stroke-width="0.5" stroke-miterlimit="10" d="M249.1,458.5c-0.5,0-0.9,0.4-0.9,0.9v0.9
						h-7v-0.9c0-0.5-0.4-0.9-0.9-0.9s-0.9,0.4-0.9,0.9v0.9h-7v-0.9c0-0.5-0.4-0.9-0.9-0.9s-0.9,0.4-0.9,0.9v0.9h-4.4
						c-0.5,0-0.9,0.4-0.9,0.9s0.4,0.9,0.9,0.9h4.4v0.9c0,0.5,0.4,0.9,0.9,0.9s0.9-0.4,0.9-0.9v-0.9h7v0.9c0,0.5,0.4,0.9,0.9,0.9
						s0.9-0.4,0.9-0.9v-0.9h7v0.9c0,0.5,0.4,0.9,0.9,0.9c0.5,0,0.9-0.4,0.9-0.9v-3.4C250,458.8,249.6,458.5,249.1,458.5z"/>
				</g>
			</g>
			<g>
				<g>
					<g>
						<g>
							<path fill="#FAFBFF" d="M399.8,357"/>
						</g>
					</g>
					<circle fill="#FAFBFF" cx="377" cy="310.1" r="37.3"/>
					<circle fill="#FAFBFF" cx="377" cy="310.1" r="37.3"/>
				</g>
				<g>
					<path fill="#0E1E5C" d="M396.2,301.9c-1-0.4-2-0.7-3.1-1c0.3-1.1,0.5-2.2,0.7-3.2c0.8-5.4-0.1-9.2-2.6-10.6
						c-0.7-0.4-1.6-0.6-2.5-0.6c-3,0-6.7,2.2-10.5,5.9c-0.8-0.8-1.7-1.6-2.5-2.2c-4.2-3.4-8-4.5-10.5-3c-1.6,0.9-2.6,2.9-2.9,5.6
						c0,0.5,0.3,0.9,0.7,0.9c0.5,0,0.9-0.3,0.9-0.7c0.1-1.5,0.6-3.5,2.1-4.3c1.9-1.1,5,0,8.7,2.9c0.8,0.6,1.6,1.3,2.4,2.1
						c-1.6,1.7-3.2,3.6-4.7,5.8c-2.7,0.2-5.2,0.6-7.5,1.2c-0.4-1.6-0.7-3.1-0.8-4.5c0-0.5-0.4-0.8-0.9-0.7c-0.5,0-0.8,0.4-0.7,0.9
						c0.1,1.5,0.4,3.1,0.9,4.8c-1.1,0.3-2.1,0.6-3,1c-5.1,2-7.9,4.7-7.9,7.6s2.8,5.6,7.9,7.6c1,0.4,2,0.7,3.1,1
						c-0.3,1.1-0.5,2.2-0.7,3.2c-0.8,5.4,0.1,9.2,2.6,10.6c0.7,0.4,1.6,0.6,2.5,0.6c2.9,0,6.6-2.2,10.4-5.8c0.8,0.8,1.6,1.5,2.4,2.1
						c3,2.4,5.7,3.7,8,3.7c0.9,0,1.8-0.2,2.5-0.6c2.6-1.5,3.5-5.2,2.6-10.6c-0.2-1-0.4-2.1-0.7-3.2c1.7-0.5,3.3-1,4.7-1.7
						c0.4-0.2,0.6-0.7,0.4-1.1c-0.2-0.4-0.7-0.6-1.1-0.4c-1.3,0.6-2.8,1.1-4.4,1.6c-0.7-2.2-1.6-4.6-2.6-6.9
						c1.1-2.4,2.1-4.9,2.8-7.2c6.1,1.7,9.8,4.4,9.8,7c0,1.7-1.5,3.1-2.7,3.9c-0.4,0.3-0.5,0.8-0.2,1.2c0.3,0.4,0.8,0.5,1.2,0.2
						c2.2-1.6,3.4-3.4,3.4-5.3C404.1,306.6,401.3,303.9,396.2,301.9L396.2,301.9z M388.6,288.1c0.6,0,1.2,0.1,1.7,0.4
						c1.9,1.1,2.6,4.3,1.8,8.9c-0.2,1-0.4,2-0.6,3.1c-2.3-0.6-4.9-1-7.6-1.2c-1.5-2.1-3.1-4.1-4.7-5.8c0.3-0.3,0.6-0.6,0.9-0.8
						C383.3,289.7,386.3,288.1,388.6,288.1L388.6,288.1z M378.1,294.7c1.2,1.3,2.5,2.8,3.7,4.4c-1.2-0.1-2.4-0.1-3.6-0.1
						c-1.3,0-2.5,0-3.7,0.1C375.6,297.6,376.8,296.1,378.1,294.7z M378.1,324.5c-1.3-1.4-2.6-2.9-3.8-4.6c1.3,0.1,2.6,0.1,3.9,0.1
						c1.3,0,2.5,0,3.7-0.1C380.6,321.6,379.4,323.1,378.1,324.5L378.1,324.5z M378.1,318.4c-1.8,0-3.5-0.1-5.1-0.2
						c-0.9-1.3-1.8-2.7-2.6-4.2c-0.8-1.4-1.6-2.9-2.3-4.3c0.7-1.5,1.5-3,2.4-4.5c0.8-1.5,1.7-2.9,2.7-4.2c1.6-0.1,3.2-0.2,5-0.2
						c1.7,0,3.3,0.1,4.9,0.2c0.9,1.4,1.8,2.8,2.7,4.3c0.9,1.5,1.7,3,2.4,4.5c-0.7,1.4-1.4,2.9-2.3,4.3c-0.8,1.5-1.7,2.9-2.7,4.2
						C381.5,318.3,379.8,318.4,378.1,318.4L378.1,318.4z M370.9,318c-2-0.2-3.9-0.6-5.6-1c0.5-1.7,1.2-3.5,2-5.4
						c0.5,1.1,1.1,2.1,1.7,3.2C369.6,315.9,370.2,317,370.9,318z M371,301.1c-0.7,1-1.3,2.1-2,3.2c-0.7,1.1-1.3,2.3-1.8,3.4
						c-0.8-1.9-1.5-3.8-2.1-5.6C366.9,301.7,368.9,301.4,371,301.1L371,301.1z M353.9,309.5c0-2.6,3.6-5.3,9.7-7
						c0.7,2.3,1.6,4.7,2.7,7.1c-1.1,2.4-2,4.7-2.6,6.9C357.5,314.9,353.9,312.2,353.9,309.5z M367.7,331c-0.6,0-1.2-0.1-1.7-0.4
						c-1.9-1.1-2.6-4.3-1.8-8.9c0.2-1,0.4-2,0.6-3.1c2.3,0.5,4.7,0.9,7.3,1.2c1.5,2.2,3.2,4.2,4.8,5.9c-0.2,0.2-0.5,0.5-0.7,0.7
						C372.9,329.4,369.9,331,367.7,331L367.7,331z M392,321.7c0.7,4.6,0.1,7.8-1.8,8.9c-1.9,1.1-5,0-8.7-2.9c-0.8-0.6-1.5-1.3-2.3-2
						c1.6-1.7,3.3-3.7,4.8-5.9c2.6-0.2,5.1-0.6,7.3-1.2C391.6,319.7,391.8,320.7,392,321.7z M390.9,317c-1.8,0.4-3.7,0.7-5.7,1
						c0.7-1,1.3-2.1,2-3.2c0.6-1.1,1.2-2.1,1.7-3.2C389.7,313.5,390.4,315.3,390.9,317L390.9,317z M388.9,307.7
						c-0.6-1.1-1.2-2.3-1.8-3.4c-0.6-1.1-1.3-2.2-2-3.2c2.1,0.2,4.1,0.6,5.9,1C390.5,303.9,389.8,305.8,388.9,307.7z"/>
					<path fill="#0E1E5C" d="M378.1,305.4c-2.3,0-4.1,1.9-4.1,4.1s1.9,4.1,4.1,4.1c2.3,0,4.1-1.9,4.1-4.1S380.4,305.4,378.1,305.4z
						 M378.1,312c-1.4,0-2.5-1.1-2.5-2.5s1.1-2.5,2.5-2.5s2.5,1.1,2.5,2.5S379.5,312,378.1,312z"/>
				</g>
			</g>
			<g>
				<g>
					<g>
						<g>
							<path fill="#FFFFFF" d="M319.9,419.8"/>
						</g>
					</g>
					<circle fill="#FFFFFF" cx="294.6" cy="373" r="38.1"/>
					<circle fill="#FFFFFF" cx="294.6" cy="373" r="38.1"/>
				</g>
			</g>
			<g>
				<g>
					<g>
						<g>
							<path fill="#FFFFFF" d="M231.6,322.1"/>
						</g>
					</g>
					<circle fill="#FFFFFF" cx="215.8" cy="292.7" r="23.9"/>
					<circle opacity="0.1" fill="#FFFFFF" cx="215.8" cy="292.7" r="23.9"/>
				</g>
				<path fill="#0E1E5C" d="M219.5,283.9c-3.4-3.4-9-3.4-12.4,0c-3.4,3.4-3.4,9,0,12.4c3.1,3,7.8,3.4,11.2,1
					c0.1,0.3,0.2,0.7,0.5,0.9l5,5c0.7,0.7,1.9,0.7,2.6,0c0.7-0.7,0.7-1.9,0-2.6l-5-5c-0.3-0.3-0.6-0.4-0.9-0.5
					C222.9,291.7,222.6,286.9,219.5,283.9L219.5,283.9z M218,294.7c-2.6,2.6-6.7,2.6-9.3,0c-2.6-2.6-2.6-6.7,0-9.3
					c2.6-2.6,6.7-2.6,9.3,0C220.5,288,220.5,292.2,218,294.7L218,294.7z M218,294.7"/>
			</g>
			<g>
				<g>
					<g>
						<g>
							<path fill="#FFFFFF" d="M85.5,342"/>
						</g>
					</g>
					<circle fill="#FFFFFF" cx="64.9" cy="303.9" r="31"/>
					<circle opacity="0.1" fill="#FFFFFF" cx="64.9" cy="303.9" r="31"/>
				</g>
				<g>
					<path fill="#1E2D67" d="M79.9,308.3c0,0,0,0.6-0.5,1.1c-0.4,0.4-0.8,0.6-1.5,0.7c0,0,0,0.1,0,0.1l0,1.4c0,0.2-0.1,0.7-0.7,1.1
						c0.1,0.4,0.1,1-0.5,1.8c-0.3,0.4-0.4,0.5-0.3,1c0.1,0.6,0.3,2.2-0.6,2.9c-0.3,0.3-1.5,1-4.4,0.7l-0.4-0.1
						c-1.3-0.2-2.4-0.3-3.1,0.6c-1,1.9-2.7,5.4-2.9,6.2c-0.1,0.4-0.4,0.6-0.8,0.6c0,0-0.1,0-0.1,0c-0.4-0.1-0.7-0.5-0.6-0.9
						c0.2-1.3,2.6-5.9,3.1-6.8c1.4-1.8,3.4-1.5,4.6-1.3l0.4,0.1c2.4,0.3,3.1-0.3,3.1-0.3c0.1-0.1,0.1-0.1,0.2-0.1
						c0.1-0.1,0.1-0.8,0-1.3c-0.3-1.1,0.2-1.8,0.5-2.2c0.2-0.3,0.3-0.5,0.3-0.6c-0.4-0.5-0.2-1.1,0-1.3c0.1-0.1,0.2-0.2,0.3-0.2
						c0.1,0,0.2-0.1,0.3-0.1l0-1.1c-0.1-0.5,0-1,0.3-1.3c0.3-0.3,0.6-0.4,0.7-0.4c0.5,0,0.8-0.1,0.9-0.2c0,0,0.1-0.2,0.1-0.2
						c-0.1-0.3-1-2.2-1.9-3.7c-0.8-1.6-0.3-2.8,0.1-3.6c0.1-0.3,0.2-0.5,0.3-0.7c0.4-4.4-1.3-6.9-2.8-8.5c-3-3.2-6.9-3.9-9.6-3.9
						c0,0-0.1,0-0.1,0c-7,0.1-9.6,2.3-11.6,4.5c-4.2,4.6-3.4,8.6-3.4,8.8c0.1,2.1,2.6,5.8,3.6,7.1c3.1,4.5,1.6,8,1.6,8.1
						c-0.2,0.4-0.6,0.6-1,0.4c-0.4-0.2-0.6-0.6-0.4-1c0.1-0.1,1.2-2.9-1.4-6.6c-0.4-0.5-3.8-5-3.9-7.8c0-0.1-1-4.7,3.8-10
						c2.3-2.6,5.4-4.9,12.7-5c3.1,0,7.4,0.7,10.9,4.4c1.8,1.9,3.7,4.7,3.2,9.7c0,0.4-0.2,0.8-0.4,1.2c-0.3,0.7-0.6,1.3-0.2,2.2
						C80,307.5,79.9,308.1,79.9,308.3z M64.1,300.3c-0.5,0-1,0.4-1.6,1c-0.6,0.6-1.3,1.3-2.4,1.7c-0.1,0-0.1,0-0.2,0.1
						c-0.1,0.8-0.5,3.2-3.3,4.4c-0.1,0-0.2,0.1-0.3,0.1c-0.3,0-0.6-0.2-0.7-0.4c-0.2-0.4,0-0.8,0.4-1c1.4-0.7,2-1.8,2.2-2.5
						c-0.6,0.1-1.1,0.2-1.6,0.2c0,0,0,0,0,0c-1.6,0-2.8-0.5-3.7-1.4c-0.9-1-1.2-2.5-1-4.3c0.5-4.4,5.2-8,11-8.4
						c5.8-0.4,10.4,2.1,11,5.7c0.2,1.4,0,2.6-0.8,3.4C71.7,300.4,68.8,300.8,64.1,300.3C64.1,300.3,64.1,300.3,64.1,300.3z
						 M64.2,298.8c1.3,0.1,2.4,0.2,3.3,0.2c0,0,0,0,0,0c0.2-0.6,0.4-1.9-0.1-2.5c-0.1-0.1-0.2-0.3-0.8-0.3c0,0,0,0,0,0
						c-0.4,0-0.8-0.3-0.8-0.7c0-0.4,0.3-0.8,0.7-0.8c1.1-0.1,1.8,0.4,2.1,0.9c0.8,1,0.6,2.5,0.4,3.3c1.3-0.2,2.2-0.5,2.7-1.1
						c0.4-0.5,0.6-1.2,0.4-2.2c-0.4-2.6-3.8-4.5-8.2-4.5c-0.4,0-0.7,0-1.1,0c-2.3,0.2-4.4,0.9-6.1,2c0.4,0,0.7,0.1,1.1,0.4
						c0.9,0.5,1.4,1.5,1.5,2.9c0,0.4-0.3,0.8-0.7,0.8c0,0,0,0-0.1,0c-0.4,0-0.7-0.3-0.8-0.7c-0.1-0.9-0.3-1.4-0.8-1.7
						c-0.7-0.4-1.9,0-2.4,0.2c-0.8,1-1.3,2-1.4,3.2c-0.2,1.4,0.1,2.4,0.7,3.1c0.7,0.8,1.7,0.9,2.5,0.9c0.9,0,1.9-0.2,2.9-0.6
						c0.8-0.3,1.4-0.9,1.9-1.4C62.2,299.4,63,298.6,64.2,298.8z"/>
				</g>
			</g>
			<g>
				<g>
					<g>
						<path fill="#0E1E5C" d="M154.7,368.2c2.5,2.5,6.2,2.7,6.9,2.7l3.4,0v15.3c0,0.4,0.4,0.8,0.8,0.8c0.4,0,0.8-0.4,0.8-0.8V366
							c0-0.2,0.1-4.2-2.7-7c-2.5-2.5-5.9-2.6-6.9-2.6l-4.2,0c-0.4,0-0.8,0.4-0.8,0.8l0,4C152.1,361.3,151.9,365.4,154.7,368.2z
							 M153.7,361.2v-3.2l3.4,0c0.6,0,3.7,0.1,5.7,2.2c2.3,2.3,2.2,5.8,2.2,5.9v2.1l-8.3-8.3c-0.3-0.3-0.8-0.3-1.1,0
							c-0.3,0.3-0.3,0.8,0,1.1l8.3,8.3l-2.2,0c-0.6,0-3.7-0.1-5.7-2.2C153.6,364.7,153.7,361.2,153.7,361.2z"/>
						<path fill="#0E1E5C" d="M168.2,376.5c0,0.1,0,0.2,0.1,0.3c0,0,0,0,0,0c0,0.1,0.1,0.2,0.1,0.2c0.1,0.1,0.1,0.1,0.2,0.1
							c0,0,0,0,0.1,0c0.1,0,0.2,0.1,0.3,0.1c0,0,0,0,0,0l4,0l0.2,0c0.7,0,4.3-0.1,6.9-2.7c2.8-2.8,2.7-6.9,2.7-7v-4
							c0-0.4-0.4-0.8-0.8-0.8l-4,0l-0.2,0c-0.7,0-4.3,0.1-6.9,2.7c-2.8,2.8-2.7,6.9-2.6,7L168.2,376.5L168.2,376.5z M172,366.6
							c2.1-2.1,5.1-2.2,5.7-2.2l3.4,0l0,3.3c0,0,0.1,3.6-2.2,5.8c-2.1,2.1-5.1,2.2-5.7,2.2l-2.2,0l8.3-8.3c0.3-0.3,0.3-0.8,0-1.1
							c-0.3-0.3-0.8-0.3-1.1,0l-8.3,8.3l0-2.1C169.8,372.4,169.7,368.9,172,366.6z"/>
						<path fill="#0E1E5C" d="M180.3,388.6c-0.8-0.2-1.7-0.1-2.4,0.3l-9.3,4.5c-1.4,0.7-2.9,0.7-6.1,0.7c-3.1,0-7.9-0.8-7.9-0.8
							c-0.4-0.1-0.9,0.2-0.9,0.7c-0.1,0.4,0.2,0.9,0.7,0.9c0.2,0,4.9,0.8,8.2,0.8c3.3,0,5,0,6.8-0.9l9.3-4.5
							c0.4-0.2,0.8-0.3,1.2-0.2c0.4,0.1,0.8,0.4,1,0.8c0.4,0.8,0.2,1.8-0.6,2.2l-10.9,6.8c0,0-2.3,1.5-7.6,1.5
							c-4.6,0-11.6-3.9-11.7-3.9c-0.1,0-1.8-0.9-5.2-0.9c-0.4,0-0.8,0.4-0.8,0.8s0.4,0.8,0.8,0.8c2.9,0,4.4,0.7,4.4,0.7c0,0,0,0,0,0
							c0.3,0.2,7.5,4.1,12.5,4.1c5.8,0,8.4-1.7,8.5-1.7l10.8-6.8c1.5-0.9,2.1-2.9,1.2-4.4C181.8,389.4,181.1,388.9,180.3,388.6z"/>
						<path fill="#0E1E5C" d="M138.4,399.4c0-0.7-0.5-1.2-1.2-1.2s-1.2,0.5-1.2,1.2c0,0.7,0.5,1.2,1.2,1.2S138.4,400.1,138.4,399.4z
							"/>
						<path fill="#0E1E5C" d="M140,382.1h-4.8c-0.4,0-0.8,0.4-0.8,0.8s0.4,0.8,0.8,0.8h4.8c0.4,0,0.8,0.4,0.8,0.8v17.7
							c0,0.4-0.4,0.8-0.8,0.8h-4.8c-0.4,0-0.8,0.4-0.8,0.8c0,0.4,0.4,0.8,0.8,0.8h4.8c1.3,0,2.4-1.1,2.4-2.4v-17.7
							C142.4,383.2,141.3,382.1,140,382.1z"/>
						<path fill="#0E1E5C" d="M144.8,386.9h6.4c0.9,0,2.5,1.2,3.9,2.3c1.8,1.3,3.4,2.6,4.9,2.6h4.8c1.2,0,1.8,0.6,1.8,0.6
							c0.2,0.2,0.4,0.2,0.6,0.2c0.2,0,0.4-0.1,0.6-0.2c0.3-0.3,0.3-0.8,0-1.1c-0.1-0.1-1.1-1-3-1h-4.8c-0.9,0-2.5-1.2-3.9-2.3
							c-1.8-1.3-3.4-2.6-4.9-2.6h-6.4c-0.4,0-0.8,0.4-0.8,0.8C144,386.6,144.4,386.9,144.8,386.9z"/>
					</g>
				</g>
			</g>
		</g>
		<circle fill="#FFFFFF" stroke="#FFFFFF" stroke-miterlimit="10" cx="290.3" cy="445.5" r="15.6"/>
		<circle fill="#FFFFFF" stroke="#FFFFFF" stroke-miterlimit="10" cx="153.2" cy="457.2" r="11.7"/>
		<circle fill="#FFFFFF" stroke="#FFFFFF" stroke-miterlimit="10" cx="364.1" cy="374.2" r="19.9"/>
		<circle fill="#FFFFFF" cx="288.3" cy="292.8" r="19.6"/>
		<circle fill="#FFFFFF" stroke="#FFFFFF" stroke-miterlimit="10" cx="148.9" cy="302.3" r="9.3"/>
		<circle fill="#FFFFFF" stroke="#FFFFFF" stroke-miterlimit="10" cx="231.9" cy="359.7" r="5.3"/>
		<circle fill="#FFFFFF" stroke="#FFFFFF" stroke-miterlimit="10" cx="424.5" cy="267.7" r="9.3"/>
		<circle fill="#FFFFFF" stroke="#FFFFFF" stroke-miterlimit="10" cx="23.6" cy="260.9" r="15.7"/>
		<circle opacity="0.1" fill="#FFFFFF" cx="78.5" cy="373" r="22.9"/>
		<circle fill="#FFFFFF" stroke="#FFFFFF" stroke-miterlimit="10" cx="377" cy="451" r="9.9"/>
		<circle fill="#FFFFFF" stroke="#FFFFFF" stroke-miterlimit="10" cx="70" cy="451" r="12.8"/>
	</g>
	<g>
		<path fill="#0E1E5C" d="M307.5,397.1h-0.4c-0.4-1.9-2-3.3-4-3.3h-7.1v-1.7c2.7-0.1,5.5-0.7,8.1-1.8c0.2-0.1,0.4-0.2,0.4-0.4
			c0.1-0.2,0.1-0.4,0-0.6l-0.4-1c-0.2-0.4-0.7-0.6-1.1-0.4c-0.4,0.2-0.6,0.7-0.4,1.1l0.1,0.2c-2.2,0.8-4.5,1.3-6.7,1.3v-0.3
			c0-0.5-0.4-0.8-0.8-0.8s-0.8,0.4-0.8,0.8v0.3c-8.2-0.3-15.9-5.3-19.2-13.4c-4.5-10.8,0.5-23.2,11-28l0.1,0.2
			c0.2,0.4,0.7,0.6,1.1,0.4c0.4-0.2,0.6-0.7,0.4-1.1l-0.4-1c-0.2-0.4-0.7-0.6-1.1-0.4c-11.9,4.9-17.6,18.6-12.6,30.5
			c3.6,8.7,11.9,14.1,20.7,14.4v1.7h-7.1c-2,0-3.7,1.4-4,3.3h-0.4c-0.5,0-0.8,0.4-0.8,0.8s0.4,0.8,0.8,0.8h24.7
			c0.5,0,0.8-0.4,0.8-0.8S307.9,397.1,307.5,397.1L307.5,397.1z M287.1,395.5h15.9c1.1,0,2,0.7,2.3,1.6h-20.6
			C285.2,396.2,286.1,395.5,287.1,395.5z"/>
		<path fill="#0E1E5C" d="M312.2,377c2.3-4.7,2.6-10.3,0.4-15.5c-2.9-7.1-9.8-11.7-17.5-11.7c-2.5,0-4.9,0.5-7.2,1.4
			c-4.7,1.9-8.3,5.6-10.3,10.3c-1.9,4.7-1.9,9.8,0,14.5c2.9,7.1,9.8,11.7,17.5,11.7c2.5,0,4.9-0.5,7.2-1.4c4.4-1.8,7.7-5.1,9.7-9.1
			C312.1,377.2,312.1,377.1,312.2,377C312.2,377,312.2,377,312.2,377z M310.9,375.8c-1.4-0.4-2.8-0.7-4.2-0.8c-0.1-1-0.2-2-0.4-3.1
			c-0.1-0.4-0.5-0.7-1-0.7c-0.4,0.1-0.7,0.5-0.7,1c0.2,0.9,0.3,1.9,0.4,2.8c-2.1,0-4.1,0.4-6.1,1.1l-2.8-6.9l6.8-2.8
			c0.3,0.9,0.7,1.8,0.9,2.7c0.1,0.4,0.6,0.7,1,0.6c0.4-0.1,0.7-0.6,0.6-1c-0.3-1-0.6-1.9-1-2.9l6.8-2.8
			C313,367.2,312.7,371.8,310.9,375.8L310.9,375.8z M287.8,372.7l6.8-2.8l2.8,6.9c-1.9,0.9-3.6,2.1-5.1,3.5
			C290.7,378.1,289.1,375.6,287.8,372.7L287.8,372.7z M302.4,364.9l-6.8,2.8l-2.8-6.9c1.9-0.9,3.6-2.1,5.1-3.5
			C299.6,359.4,301.1,362,302.4,364.9L302.4,364.9z M285.1,359.5c0.2-3,1.1-5.2,2.7-6.3l2.8,6.8c-1.8,0.6-3.6,1-5.5,1
			C285.1,360.4,285.1,359.9,285.1,359.5z M292.1,359.3l-2.8-6.8c1.8-0.3,4,0.6,6.3,2.5c0.4,0.3,0.7,0.7,1.1,1
			C295.3,357.4,293.8,358.5,292.1,359.3L292.1,359.3z M291.2,361.5l2.8,6.9l-6.8,2.8c-1.1-2.9-1.8-5.9-2.1-8.6
			C287.2,362.6,289.2,362.2,291.2,361.5z M302.5,384.4l-2.8-6.7c1.8-0.6,3.6-1,5.5-1C305.2,380.3,304.2,383.1,302.5,384.4z
			 M298.1,378.3l2.8,6.8c-1.8,0.3-4-0.6-6.3-2.5c-0.4-0.3-0.7-0.7-1.1-1C294.9,380.1,296.4,379.1,298.1,378.3z M310.8,361.4
			l-6.8,2.8c-1.4-3.1-3.1-5.9-5-8.1c0.9-1.1,1.8-2.3,2.4-3.5C305.5,354.2,308.8,357.3,310.8,361.4L310.8,361.4z M299.8,352.1
			c-0.6,1-1.2,2-2,2.8c-0.4-0.4-0.8-0.7-1.2-1.1c-1.2-1-2.3-1.8-3.5-2.3c0.6-0.1,1.3-0.1,1.9-0.1
			C296.7,351.5,298.3,351.7,299.8,352.1L299.8,352.1z M284.3,355.3c-0.4,1.2-0.7,2.5-0.8,4.1c0,0.5-0.1,1,0,1.6
			c-1.1-0.1-2.3-0.3-3.4-0.6C281.1,358.4,282.6,356.6,284.3,355.3z M279.1,362.2c0-0.1,0.1-0.2,0.1-0.3c1.4,0.4,2.8,0.7,4.2,0.8
			c0.2,2.9,1,6.1,2.2,9.2l-6.8,2.8C277.4,370.6,277.5,366.2,279.1,362.2z M279.5,376.2l6.8-2.8c1.4,3.1,3.1,5.9,5,8.1
			c-0.9,1.1-1.8,2.3-2.4,3.5C284.8,383.3,281.4,380.3,279.5,376.2L279.5,376.2z M290.4,385.5c0.6-1,1.2-2,2-2.8
			c0.4,0.4,0.8,0.7,1.2,1.1c1.2,1,2.3,1.8,3.5,2.3c-0.6,0.1-1.3,0.1-1.9,0.1C293.5,386.1,291.9,385.9,290.4,385.5L290.4,385.5z
			 M305.9,382.3c0.2-0.4,0.3-0.9,0.4-1.4c0.3-1.3,0.5-2.7,0.5-4.3c1.1,0.1,2.3,0.3,3.4,0.6C309.1,379.2,307.7,380.9,305.9,382.3z"/>
	</g>
</g>
<g id="Capa_2">
</g>
</svg>
