<?xml version="1.0" encoding="utf-8"?>
<!-- Generator: Adobe Illustrator 18.0.0, SVG Export Plug-In . SVG Version: 6.00 Build 0)  -->
<!DOCTYPE svg PUBLIC "-//W3C//DTD SVG 1.1//EN" "http://www.w3.org/Graphics/SVG/1.1/DTD/svg11.dtd">
<svg version="1.1" id="Capa_1" xmlns="http://www.w3.org/2000/svg" xmlns:xlink="http://www.w3.org/1999/xlink" x="0px" y="0px"
	 viewBox="0 0 100 100" enable-background="new 0 0 100 100" xml:space="preserve">
<g>
	<path fill="#E9E9E0" d="M66,0H14.2c-1.4,0-2.6,1.2-2.6,3.4v94.8c0,0.6,1.2,1.8,2.6,1.8h71.6c1.4,0,2.6-1.2,2.6-1.8v-75
		c0-1.2-0.2-1.6-0.5-1.9L67.2,0.5C66.9,0.2,66.5,0,66,0z"/>
	<path fill="#659C35" d="M85.8,100H14.2c-1.4,0-2.6-1.2-2.6-2.6V69.6h76.8v27.7C88.4,98.8,87.2,100,85.8,100z"/>
	<polygon fill="#D9D7CA" points="67,0.3 67,21.4 88.1,21.4 	"/>
	<circle fill="#F3D55B" cx="33.8" cy="25.8" r="8.2"/>
	<polygon fill="#88C057" points="11.6,69.6 31.3,69.6 88.4,69.6 88.4,50 70.5,33 51.8,53.6 42,43.8 	"/>
	<text transform="matrix(1 0 0 1 25.6464 94.6667)" fill="#FFFFFF" font-family="'Calibri'" font-size="30">IMG</text>
</g>
</svg>
