<?xml version="1.0" encoding="utf-8"?>
<!-- Generator: Adobe Illustrator 18.0.0, SVG Export Plug-In . SVG Version: 6.00 Build 0)  -->
<!DOCTYPE svg PUBLIC "-//W3C//DTD SVG 1.1//EN" "http://www.w3.org/Graphics/SVG/1.1/DTD/svg11.dtd">
<svg version="1.1" id="Capa_1" xmlns="http://www.w3.org/2000/svg" xmlns:xlink="http://www.w3.org/1999/xlink" x="0px" y="0px"
	 viewBox="0 0 800 1280" enable-background="new 0 0 800 1280" xml:space="preserve">
<path fill="#C4C4C4" d="M400,260.7C179.1,260.7,0,421.3,0,619.3c0,73,24.4,140.8,66.2,197.5C60.7,882.2,44.9,974.4,0,1019.3
	c0,0,137.1-19.2,230-75.3c0.1,0,0.2,0.1,0.3,0.1c38.1-24.8,76.3-50.4,84.2-56.9c4.1-5.8,12.1-7.6,18.3-3.8c4.1,2.5,6.7,6.9,6.7,11.7
	c0.1,8.6-0.1,10.8-77,61c42.9,14.1,89.1,21.9,137.4,21.9c220.9,0,400-160.6,400-358.6S620.9,260.7,400,260.7z M206.9,660.7
	c-22.9,0-41.4-18.5-41.4-41.4c0-22.9,18.5-41.4,41.4-41.4s41.4,18.5,41.4,41.4C248.3,642.2,229.7,660.7,206.9,660.7z M400,660.7
	c-22.9,0-41.4-18.5-41.4-41.4c0-22.9,18.5-41.4,41.4-41.4s41.4,18.5,41.4,41.4C441.4,642.2,422.9,660.7,400,660.7z M593.1,660.7
	c-22.9,0-41.4-18.5-41.4-41.4c0-22.9,18.5-41.4,41.4-41.4s41.4,18.5,41.4,41.4C634.5,642.2,616,660.7,593.1,660.7z"/>
</svg>
