<?xml version="1.0" encoding="utf-8"?>
<!-- Generator: Adobe Illustrator 18.0.0, SVG Export Plug-In . SVG Version: 6.00 Build 0)  -->
<!DOCTYPE svg PUBLIC "-//W3C//DTD SVG 1.1//EN" "http://www.w3.org/Graphics/SVG/1.1/DTD/svg11.dtd">
<svg version="1.1" id="Capa_1" xmlns="http://www.w3.org/2000/svg" xmlns:xlink="http://www.w3.org/1999/xlink" x="0px" y="0px"
	 viewBox="0 0 800 1280" enable-background="new 0 0 800 1280" xml:space="preserve">
<g>
	<g>
		<path fill="#2B95BF" d="M627.3,785.5c-47.2,0-88.4,25.8-110.4,64L283.2,703.1C293.9,684.5,300,663,300,640
			c0-22.8-6-44.1-16.5-62.6l237-140.8c22.7,34.9,62,58,106.7,58c70.3,0,127.3-57,127.3-127.3c0-70.3-57-127.3-127.3-127.3
			S500,297,500,367.3c0,19.1,4.2,37.2,11.7,53.4L273.5,562.2c-23.3-30.1-59.7-49.5-100.7-49.5c-70.3,0-127.3,57-127.3,127.3
			s57,127.3,127.3,127.3c40.8,0,77.1-19.2,100.4-49.1l235.8,147.7c-5.7,14.5-8.9,30.3-8.9,46.8c0,70.3,57,127.3,127.3,127.3
			s127.3-57,127.3-127.3C754.5,842.4,697.6,785.5,627.3,785.5z"/>
	</g>
</g>
</svg>
