<?xml version="1.0" encoding="utf-8"?>
<!-- Generator: Adobe Illustrator 18.0.0, SVG Export Plug-In . SVG Version: 6.00 Build 0)  -->
<!DOCTYPE svg PUBLIC "-//W3C//DTD SVG 1.1//EN" "http://www.w3.org/Graphics/SVG/1.1/DTD/svg11.dtd">
<svg version="1.1" id="Capa_1" xmlns="http://www.w3.org/2000/svg" xmlns:xlink="http://www.w3.org/1999/xlink" x="0px" y="0px"
	 viewBox="0 0 604 306.7" enable-background="new 0 0 604 306.7" xml:space="preserve">
<polygon fill="#FF0107" points="217.7,0 195,100 81.7,78.7 171.3,152.3 126.3,305.4 219.3,203.4 307,262 264.3,152.3 327.3,104.7 
	237.3,102.9 "/>
<g>
	<defs>
		<rect id="SVGID_1_" width="604" height="306.7"/>
	</defs>
	<clipPath id="SVGID_2_">
		<use xlink:href="#SVGID_1_"  overflow="visible"/>
	</clipPath>
	<g clip-path="url(#SVGID_2_)">
		<path fill="#0E1E5C" d="M9.1,223.3V111.2h17.1v93.1h42.5v19.1H9.1z"/>
		<path fill="#0E1E5C" d="M92.8,166.4l-14.7-3.5c1.7-7.9,4.5-13.8,8.5-17.6c4-3.8,10-5.7,18-5.7c7.2,0,12.6,1.1,16.2,3.4
			c3.5,2.3,6,5.2,7.5,8.7c1.4,3.5,2.2,10,2.2,19.4l-0.2,25.3c0,7.2,0.3,12.5,0.8,15.9c0.5,3.4,1.5,7.1,2.9,11H118
			c-0.4-1.4-0.9-3.6-1.6-6.4c-0.3-1.3-0.5-2.1-0.6-2.5c-2.8,3.6-5.7,6.3-8.9,8.1c-3.2,1.8-6.5,2.7-10.1,2.7
			c-6.3,0-11.3-2.3-14.9-6.9c-3.6-4.6-5.5-10.4-5.5-17.4c0-4.6,0.8-8.8,2.5-12.4c1.7-3.6,4-6.4,7-8.3c3-1.9,7.3-3.6,12.9-5.1
			c7.6-1.9,12.8-3.7,15.8-5.3v-2.2c0-4.2-0.8-7.1-2.3-8.9c-1.5-1.8-4.4-2.7-8.7-2.7c-2.9,0-5.1,0.8-6.8,2.3
			C95.2,159.9,93.8,162.6,92.8,166.4z M114.6,184c-2.1,0.9-5.4,2-9.9,3.3c-4.5,1.3-7.4,2.5-8.8,3.8c-2.1,2-3.2,4.6-3.2,7.6
			c0,3,0.8,5.7,2.5,7.9c1.7,2.2,3.8,3.3,6.5,3.3c2.9,0,5.7-1.3,8.4-3.9c2-2,3.3-4.3,3.9-7.2c0.4-1.9,0.6-5.4,0.6-10.6V184z"/>
	</g>
	<g clip-path="url(#SVGID_2_)">
		<path fill="#0E1E5C" d="M323.7,186.5l17.1-2.2c1,7.5,3.1,12.9,6.3,16.4c3.2,3.5,7.4,5.2,12.8,5.2c5.7,0,10-1.6,12.8-4.7
			c2.9-3.1,4.3-6.8,4.3-10.9c0-2.7-0.6-4.9-1.8-6.8c-1.2-1.9-3.3-3.5-6.3-4.9c-2.1-0.9-6.8-2.6-14.1-4.9c-9.4-3-16.1-6.8-19.9-11.2
			c-5.4-6.2-8-13.8-8-22.8c0-5.8,1.3-11.1,3.8-16.2c2.5-5,6.2-8.8,10.9-11.5c4.7-2.6,10.5-3.9,17.2-3.9c11,0,19.2,3.1,24.7,9.3
			c5.5,6.2,8.4,14.5,8.7,24.9l-17.6,1c-0.8-5.8-2.4-10-4.9-12.5s-6.2-3.8-11.2-3.8c-5.1,0-9.1,1.4-12,4.1c-1.9,1.7-2.8,4.1-2.8,7
			c0,2.7,0.9,5,2.6,6.9c2.2,2.4,7.6,4.9,16.2,7.6s14.9,5.3,19,8.1c4.1,2.8,7.3,6.6,9.6,11.5s3.5,10.9,3.5,18
			c0,6.5-1.4,12.5-4.2,18.2c-2.8,5.7-6.7,9.9-11.8,12.6c-5.1,2.8-11.4,4.1-19,4.1c-11,0-19.5-3.3-25.4-9.9
			C328.4,208.8,324.8,199.2,323.7,186.5z"/>
		<path fill="#0E1E5C" d="M421.9,166.4l-15.2-3.5c1.7-7.9,4.6-13.8,8.8-17.6c4.2-3.8,10.4-5.7,18.6-5.7c7.5,0,13,1.1,16.7,3.4
			c3.7,2.3,6.2,5.2,7.7,8.7c1.5,3.5,2.2,10,2.2,19.4l-0.2,25.3c0,7.2,0.3,12.5,0.8,15.9c0.5,3.4,1.5,7.1,3,11h-16.6
			c-0.4-1.4-1-3.6-1.6-6.4c-0.3-1.3-0.5-2.1-0.6-2.5c-2.9,3.6-5.9,6.3-9.2,8.1c-3.3,1.8-6.7,2.7-10.4,2.7c-6.5,0-11.6-2.3-15.4-6.9
			c-3.8-4.6-5.6-10.4-5.6-17.4c0-4.6,0.9-8.8,2.6-12.4c1.7-3.6,4.1-6.4,7.2-8.3c3.1-1.9,7.5-3.6,13.3-5.1c7.8-1.9,13.2-3.7,16.3-5.3
			v-2.2c0-4.2-0.8-7.1-2.4-8.9c-1.6-1.8-4.6-2.7-9-2.7c-3,0-5.3,0.8-7,2.3C424.2,159.9,422.9,162.6,421.9,166.4z M444.2,184
			c-2.1,0.9-5.5,2-10.2,3.3c-4.6,1.3-7.7,2.5-9.1,3.8c-2.2,2-3.3,4.6-3.3,7.6c0,3,0.9,5.7,2.6,7.9c1.7,2.2,4,3.3,6.7,3.3
			c3,0,5.9-1.3,8.6-3.9c2-2,3.4-4.3,4-7.2c0.4-1.9,0.7-5.4,0.7-10.6V184z"/>
		<path fill="#0E1E5C" d="M477.2,223.3V110.2h16.7v113.1H477.2z"/>
		<path fill="#0E1E5C" d="M511.1,223.3V110.2h16.7v113.1H511.1z"/>
		<path fill="#0E1E5C" d="M581.6,197.3l16.7,3.6c-2.1,7.9-5.5,14-10.2,18.1c-4.6,4.1-10.4,6.2-17.4,6.2c-11,0-19.1-4.7-24.4-14
			c-4.2-7.5-6.3-16.9-6.3-28.2c0-13.6,2.7-24.2,8.2-31.9c5.5-7.7,12.4-11.5,20.8-11.5c9.4,0,16.8,4,22.3,12.1c5.4,8.1,8,20.4,7.8,37
			h-41.9c0.1,6.4,1.5,11.4,4,15c2.6,3.6,5.8,5.4,9.6,5.4c2.6,0,4.8-0.9,6.6-2.8S580.6,201.4,581.6,197.3z M582.5,175.3
			c-0.1-6.3-1.4-11-3.8-14.3c-2.4-3.3-5.3-4.9-8.7-4.9c-3.7,0-6.7,1.7-9.1,5.2c-2.4,3.4-3.6,8.1-3.5,14H582.5z"/>
	</g>
	<g clip-path="url(#SVGID_2_)">
		<path fill="#303030" d="M416.5,284.9v-41.2h8.4v34.2h20.8v7H416.5z"/>
		<path fill="#303030" d="M457.6,264l-7.2-1.3c0.8-2.9,2.2-5.1,4.2-6.5s4.9-2.1,8.8-2.1c3.5,0,6.2,0.4,7.9,1.3
			c1.7,0.8,3,1.9,3.7,3.2c0.7,1.3,1.1,3.7,1.1,7.1L476,275c0,2.6,0.1,4.6,0.4,5.8c0.3,1.3,0.7,2.6,1.4,4H470
			c-0.2-0.5-0.5-1.3-0.8-2.4c-0.1-0.5-0.2-0.8-0.3-0.9c-1.4,1.3-2.8,2.3-4.4,3s-3.2,1-5,1c-3.1,0-5.5-0.8-7.3-2.5
			c-1.8-1.7-2.7-3.8-2.7-6.4c0-1.7,0.4-3.2,1.2-4.5c0.8-1.3,1.9-2.4,3.4-3.1c1.5-0.7,3.6-1.3,6.3-1.9c3.7-0.7,6.3-1.3,7.7-2v-0.8
			c0-1.5-0.4-2.6-1.1-3.3c-0.8-0.7-2.2-1-4.3-1c-1.4,0-2.5,0.3-3.3,0.8C458.8,261.6,458.1,262.6,457.6,264z M468.3,270.4
			c-1,0.3-2.6,0.7-4.8,1.2s-3.7,0.9-4.3,1.4c-1,0.7-1.6,1.7-1.6,2.8c0,1.1,0.4,2.1,1.2,2.9s1.9,1.2,3.2,1.2c1.4,0,2.8-0.5,4.1-1.4
			c1-0.7,1.6-1.6,1.9-2.6c0.2-0.7,0.3-2,0.3-3.9V270.4z"/>
		<path fill="#303030" d="M500.1,284.9v-41.5h13.5c5.1,0,8.4,0.2,10,0.6c2.4,0.6,4.4,2,6,4.1c1.6,2.1,2.4,4.8,2.4,8.1
			c0,2.5-0.5,4.7-1.4,6.4s-2.1,3.1-3.5,4.1c-1.4,1-2.9,1.6-4.3,2c-2,0.4-4.9,0.6-8.7,0.6h-5.5v15.7H500.1z M508.5,250.4v11.8h4.6
			c3.3,0,5.5-0.2,6.6-0.7s2-1.1,2.6-2c0.6-0.9,0.9-2,0.9-3.2c0-1.5-0.4-2.8-1.3-3.7s-2-1.6-3.4-1.8c-1-0.2-3-0.3-6-0.3H508.5z"/>
		<path fill="#303030" d="M544.7,264l-7.2-1.3c0.8-2.9,2.2-5.1,4.2-6.5s4.9-2.1,8.8-2.1c3.5,0,6.2,0.4,7.9,1.3
			c1.7,0.8,3,1.9,3.7,3.2c0.7,1.3,1.1,3.7,1.1,7.1l-0.1,9.3c0,2.6,0.1,4.6,0.4,5.8c0.3,1.3,0.7,2.6,1.4,4H557
			c-0.2-0.5-0.5-1.3-0.8-2.4c-0.1-0.5-0.2-0.8-0.3-0.9c-1.4,1.3-2.8,2.3-4.4,3s-3.2,1-5,1c-3.1,0-5.5-0.8-7.3-2.5
			c-1.8-1.7-2.7-3.8-2.7-6.4c0-1.7,0.4-3.2,1.2-4.5c0.8-1.3,1.9-2.4,3.4-3.1c1.5-0.7,3.6-1.3,6.3-1.9c3.7-0.7,6.3-1.3,7.7-2v-0.8
			c0-1.5-0.4-2.6-1.1-3.3c-0.8-0.7-2.2-1-4.3-1c-1.4,0-2.5,0.3-3.3,0.8C545.8,261.6,545.2,262.6,544.7,264z M555.3,270.4
			c-1,0.3-2.6,0.7-4.8,1.2s-3.7,0.9-4.3,1.4c-1,0.7-1.6,1.7-1.6,2.8c0,1.1,0.4,2.1,1.2,2.9s1.9,1.2,3.2,1.2c1.4,0,2.8-0.5,4.1-1.4
			c1-0.7,1.6-1.6,1.9-2.6c0.2-0.7,0.3-2,0.3-3.9V270.4z"/>
		<path fill="#303030" d="M567.8,284.9v-6.2l11.3-12.9c1.9-2.1,3.2-3.6,4.1-4.5c-0.9,0.1-2.1,0.1-3.7,0.1l-10.6,0.1v-6.6h24.9v5.6
			l-11.5,13.3l-4,4.4c2.2-0.1,3.6-0.2,4.1-0.2h12.3v7H567.8z"/>
	</g>
</g>
</svg>
