<?xml version="1.0" encoding="iso-8859-1"?>
<!-- Generator: Adobe Illustrator 19.1.0, SVG Export Plug-In . SVG Version: 6.00 Build 0)  -->
<svg xmlns="http://www.w3.org/2000/svg" xmlns:xlink="http://www.w3.org/1999/xlink" version="1.1" id="Capa_1" x="0px" y="0px" viewBox="0 0 333.379 333.379" style="enable-background:new 0 0 333.379 333.379;" xml:space="preserve" width="512px" height="512px">
<g>
	<path d="M257.067,0H76.312C55.039,0,37.751,17.288,37.751,38.561v256.257c0,21.273,17.288,38.561,38.561,38.561h180.755   c21.266,0,38.561-17.288,38.561-38.561V38.561C295.628,17.295,278.333,0,257.067,0z M282.774,294.818   c0,14.178-11.543,25.707-25.707,25.707H76.312c-14.178,0-25.707-11.53-25.707-25.707V38.561c0-14.178,11.53-25.707,25.707-25.707   h180.755c14.165,0,25.707,11.53,25.707,25.707V294.818z M70.689,106.846H262.69V38.561H70.689V106.846z M83.542,51.415h166.294   v42.578H83.542V51.415z M112.887,141.577v15.572c0,5.578-4.531,10.097-10.103,10.097H87.212c-5.578,0-10.09-4.518-10.09-10.097   v-15.572c0-5.572,4.512-10.09,10.09-10.09h15.572C108.356,131.48,112.887,136.005,112.887,141.577z M184.579,141.577v15.572   c0,5.572-4.531,10.097-10.103,10.097H158.91c-5.578,0-10.097-4.524-10.097-10.097v-15.572c0-5.578,4.518-10.09,10.097-10.09h15.566   C180.048,131.48,184.579,135.998,184.579,141.577z M256.264,141.577v15.572c0,5.572-4.531,10.097-10.103,10.097h-15.566   c-5.572,0-10.103-4.524-10.103-10.097v-15.572c0-5.578,4.531-10.09,10.103-10.09h15.566   C251.733,131.48,256.264,135.998,256.264,141.577z M112.887,204.566v15.572c0,5.572-4.531,10.09-10.103,10.09H87.212   c-5.578,0-10.09-4.518-10.09-10.09v-15.572c0-5.572,4.512-10.09,10.09-10.09h15.572   C108.356,194.47,112.887,198.988,112.887,204.566z M112.887,267.549v15.566c0,5.578-4.531,10.097-10.103,10.097H87.212   c-5.578,0-10.09-4.518-10.09-10.097v-15.566c0-5.585,4.512-10.097,10.09-10.097h15.572   C108.356,257.453,112.887,261.964,112.887,267.549z M184.579,204.56v15.585c0,5.566-4.531,10.084-10.103,10.084H158.91   c-5.578,0-10.097-4.518-10.097-10.084V204.56c0-5.572,4.518-10.09,10.097-10.09h15.566   C180.048,194.463,184.579,198.981,184.579,204.56z M184.579,267.543v15.572c0,5.572-4.531,10.097-10.103,10.097H158.91   c-5.578,0-10.097-4.525-10.097-10.097v-15.572c0-5.578,4.518-10.097,10.097-10.097h15.566   C180.048,257.446,184.579,261.964,184.579,267.543z M256.264,204.56v15.585c0,0.019-0.019,0.039-0.019,0.064v47.269   c0,0.019,0.019,0.051,0.019,0.071v15.572c0,5.572-4.531,10.097-10.103,10.097h-15.566c-5.585,0-10.103-4.524-10.103-10.097v-7.294   v-8.278v-47.404v-11.279v-4.306c0-5.572,4.518-10.09,10.103-10.09h15.566C251.733,194.463,256.264,198.981,256.264,204.56z" fill="#0e69ab"/>
</g>
<g>
</g>
<g>
</g>
<g>
</g>
<g>
</g>
<g>
</g>
<g>
</g>
<g>
</g>
<g>
</g>
<g>
</g>
<g>
</g>
<g>
</g>
<g>
</g>
<g>
</g>
<g>
</g>
<g>
</g>
</svg>
