<?xml version="1.0" encoding="utf-8"?>
<!-- Generator: Adobe Illustrator 18.0.0, SVG Export Plug-In . SVG Version: 6.00 Build 0)  -->
<!DOCTYPE svg PUBLIC "-//W3C//DTD SVG 1.1//EN" "http://www.w3.org/Graphics/SVG/1.1/DTD/svg11.dtd">
<svg version="1.1" id="Capa_1" xmlns="http://www.w3.org/2000/svg" xmlns:xlink="http://www.w3.org/1999/xlink" x="0px" y="0px"
	 viewBox="0 0 30 30" enable-background="new 0 0 30 30" xml:space="preserve">
<g>
	<g>
		<path fill="#0E69AB" d="M23,16.1H6.8c-0.6,0-1.2-0.5-1.2-1.2c0-0.6,0.5-1.2,1.2-1.2H23c0.6,0,1.2,0.5,1.2,1.2
			C24.2,15.6,23.7,16.1,23,16.1z"/>
	</g>
	<g>
		<path fill="#0E69AB" d="M14.9,10.8c-1.2,0-2.2-1-2.2-2.2c0-1.2,1-2.2,2.2-2.2c1.2,0,2.2,1,2.2,2.2C17.1,9.8,16.1,10.8,14.9,10.8z
			 M14.9,8.4c-0.1,0-0.2,0.1-0.2,0.2c0,0.1,0.1,0.2,0.2,0.2s0.2-0.1,0.2-0.2C15.1,8.5,15,8.4,14.9,8.4z"/>
	</g>
	<g>
		<path fill="#0E69AB" d="M14.9,23.4c-1.2,0-2.2-1-2.2-2.2c0-1.2,1-2.2,2.2-2.2c1.2,0,2.2,1,2.2,2.2C17.1,22.4,16.1,23.4,14.9,23.4z
			 M14.9,21c-0.1,0-0.2,0.1-0.2,0.2c0,0.1,0.1,0.2,0.2,0.2s0.2-0.1,0.2-0.2C15.1,21.1,15,21,14.9,21z"/>
	</g>
</g>
</svg>
