<?xml version="1.0" encoding="iso-8859-1"?>
<!-- Generator: Adobe Illustrator 19.0.0, SVG Export Plug-In . SVG Version: 6.00 Build 0)  -->
<svg xmlns="http://www.w3.org/2000/svg" xmlns:xlink="http://www.w3.org/1999/xlink" version="1.1" id="Layer_1" x="0px" y="0px" viewBox="0 0 512.001 512.001" style="enable-background:new 0 0 512.001 512.001;" xml:space="preserve" width="512px" height="512px">
<g>
	<g>
		<path d="M308.421,101.5c-0.809-2.491-2.842-4.389-5.382-5.027l-26.258-6.592l-14.385-22.935c-1.39-2.219-3.824-3.565-6.443-3.565    c-2.619,0-5.052,1.347-6.443,3.565l-14.385,22.935l-26.258,6.592c-2.539,0.638-4.572,2.536-5.382,5.027    c-0.809,2.49-0.28,5.22,1.399,7.229l17.37,20.766l-1.844,27.011c-0.178,2.612,0.999,5.132,3.117,6.672    c2.117,1.539,4.881,1.881,7.307,0.904l25.118-10.101l25.118,10.101c0.916,0.368,1.879,0.55,2.836,0.55    c1.583,0,3.152-0.494,4.471-1.452c2.118-1.539,3.296-4.059,3.117-6.672l-1.844-27.011l17.368-20.767    C308.701,106.721,309.23,103.989,308.421,101.5z M276.022,122.083c-1.259,1.505-1.887,3.44-1.753,5.398l1.227,17.962    l-16.705-6.717c-0.91-0.366-1.874-0.55-2.837-0.55s-1.927,0.184-2.837,0.55l-16.705,6.717l1.227-17.962    c0.134-1.958-0.494-3.892-1.753-5.398l-11.55-13.81l17.462-4.384c1.903-0.479,3.549-1.673,4.591-3.336l9.566-15.253l9.566,15.253    c1.041,1.663,2.687,2.858,4.591,3.336l17.462,4.384L276.022,122.083z" fill="#0e69ab"/>
	</g>
</g>
<g>
	<g>
		<path d="M404.651,105.294c-0.809-2.491-2.842-4.389-5.382-5.027l-15.33-3.848l-8.397-13.39c-1.39-2.219-3.824-3.565-6.443-3.565    s-5.052,1.347-6.443,3.564l-8.397,13.391l-15.331,3.848c-2.539,0.638-4.572,2.536-5.382,5.027c-0.809,2.49-0.28,5.22,1.399,7.229    l10.142,12.126l-1.077,15.769c-0.178,2.612,0.999,5.133,3.117,6.672c1.319,0.958,2.888,1.452,4.471,1.452    c0.957,0,1.922-0.18,2.836-0.55l14.665-5.897l14.663,5.897c2.43,0.978,5.191,0.636,7.308-0.904    c2.118-1.539,3.296-4.059,3.117-6.672l-1.077-15.769l10.14-12.125C404.931,110.516,405.461,107.784,404.651,105.294z     M379.481,117.237c-1.26,1.505-1.887,3.44-1.753,5.398l0.458,6.72l-6.249-2.514c-1.822-0.732-3.855-0.732-5.676,0l-6.251,2.514    l0.458-6.721c0.134-1.958-0.494-3.892-1.753-5.398l-4.322-5.168l6.536-1.639c1.903-0.478,3.548-1.673,4.591-3.336l3.58-5.707    l3.578,5.706c1.042,1.663,2.688,2.859,4.592,3.336l6.534,1.641L379.481,117.237z" fill="#0e69ab"/>
	</g>
</g>
<g>
	<g>
		<path d="M182.059,105.296c-0.809-2.49-2.842-4.389-5.382-5.027l-15.331-3.848l-8.397-13.391c-1.39-2.218-3.824-3.564-6.443-3.564    c-2.619,0-5.052,1.347-6.443,3.564l-8.397,13.391l-15.33,3.848c-2.539,0.638-4.572,2.536-5.382,5.027    c-0.809,2.491-0.28,5.221,1.399,7.229l10.141,12.124l-1.077,15.769c-0.178,2.612,0.999,5.133,3.117,6.672    c2.117,1.539,4.881,1.881,7.307,0.904l14.665-5.898l14.665,5.898c0.915,0.368,1.879,0.55,2.836,0.55    c1.583,0,3.152-0.494,4.471-1.452c2.118-1.539,3.296-4.059,3.117-6.672l-1.077-15.769l10.14-12.125    C182.339,110.518,182.868,107.786,182.059,105.296z M156.889,117.238c-1.259,1.505-1.887,3.44-1.753,5.398l0.458,6.721    l-6.251-2.514c-0.91-0.366-1.874-0.55-2.837-0.55c-0.963,0-1.927,0.184-2.837,0.55l-6.251,2.514l0.458-6.721    c0.134-1.958-0.494-3.892-1.753-5.398l-4.322-5.168l6.536-1.641c1.903-0.478,3.548-1.673,4.591-3.336l3.58-5.707l3.58,5.707    c1.042,1.663,2.687,2.858,4.591,3.336l6.534,1.641L156.889,117.238z" fill="#0e69ab"/>
	</g>
</g>
<g>
	<g>
		<path d="M510.902,250.819c-1.294-2.14-3.558-3.506-6.055-3.655c-0.624-0.038-62.704-4.126-90.367-40.221    c-31.985-41.731-92.037-42.837-94.578-42.864c-3.046-0.03-5.774,1.729-7.015,4.483l-24.259,53.9    c-0.005,0.012-0.011,0.023-0.016,0.035l-24.981,55.506L256,294.956l-7.63-16.952l-13.548-30.102    c-0.01-0.024-0.021-0.048-0.032-0.072l-11.403-25.336c-0.002-0.006-0.005-0.012-0.008-0.018l-24.265-53.914    c-1.24-2.755-3.971-4.522-7.015-4.483c-2.54,0.026-62.593,1.134-94.578,42.864c-6.868,8.962-16.508,16.732-28.651,23.093    c-3.721,1.949-5.156,6.546-3.207,10.266c1.947,3.72,6.54,5.159,10.266,3.208c14.115-7.395,25.442-16.584,33.666-27.315    c0.995-1.298,2.037-2.534,3.1-3.743l4.298,9.548c-2.946,2.99-5.416,6.108-8.27,9.83c-22.914,29.899-69.684,37.851-85.222,39.709    l-4.675-10.387c6.737-0.971,16.095-2.684,26.514-5.65c4.039-1.15,6.383-5.357,5.233-9.397c-1.151-4.039-5.356-6.382-9.398-5.233    c-18.626,5.303-33.873,6.281-34.02,6.29c-2.497,0.148-4.76,1.515-6.055,3.655c-1.295,2.14-1.456,4.778-0.429,7.059l11.259,25.016    c0.005,0.011,0.009,0.021,0.014,0.032l12.016,26.697c0.003,0.006,0.005,0.012,0.008,0.018l12.407,27.567    c0.006,0.013,0.012,0.026,0.018,0.04l13.534,30.071c1.233,2.741,3.955,4.484,6.933,4.484c0.15,0,0.302-0.004,0.453-0.013    c2.83-0.168,69.69-4.6,101.538-46.151c22.603-29.493,63.733-35.435,77.796-36.618l11.012,24.466l-55.991,124.405    c-1.724,3.83-0.017,8.333,3.814,10.056c1.013,0.456,2.074,0.672,3.117,0.672c2.9,0,5.672-1.669,6.939-4.486l50.461-112.118    l50.462,112.118c1.268,2.817,4.038,4.486,6.939,4.486c1.043,0,2.104-0.216,3.117-0.672c3.83-1.724,5.538-6.226,3.814-10.056    l-55.992-124.405l11.016-24.475c14.053,1.155,55.108,7.031,77.793,36.627c31.848,41.552,98.708,45.983,101.538,46.151    c0.151,0.009,0.303,0.013,0.453,0.013c2.978,0,5.7-1.744,6.933-4.484l13.535-30.072c0.005-0.011,0.01-0.023,0.016-0.034    l12.411-27.57c0.003-0.006,0.005-0.012,0.008-0.018l23.29-51.746C512.358,255.598,512.197,252.958,510.902,250.819z     M187.393,179.578l17.458,38.792c-31.849,2.707-51.43,15.798-61.525,25.076l-18.841-41.86    C147.116,184.592,176.048,180.533,187.393,179.578z M35.527,298.259l-5.49-12.199c20.762-2.952,66.184-12.908,90.76-44.975    c1.081-1.41,2.072-2.684,3.04-3.881l5.183,11.516c-2.948,2.992-5.417,6.11-8.27,9.83    C97.835,288.449,51.064,296.401,35.527,298.259z M47.949,325.863l-5.887-13.081c20.761-2.953,66.183-12.91,90.761-44.977    c1.321-1.724,2.513-3.259,3.685-4.677c1.135,0.868,2.504,1.426,3.977,1.557c0.222,0.019,0.444,0.029,0.664,0.029    c2.502,0,4.873-1.246,6.299-3.333c0.759-1.11,18.535-26.331,64.07-28.193l4.922,10.938c-19.445,2.27-59.263,10.706-83.27,42.029    C110.257,316.052,63.486,324.005,47.949,325.863z M146.779,316.386c-22.914,29.896-69.682,37.851-85.223,39.71l-7.072-15.713    c20.761-2.953,66.183-12.91,90.761-44.977c22.599-29.487,63.72-35.433,77.796-36.618l7.007,15.569    C210.605,276.628,170.785,285.064,146.779,316.386z M324.609,179.578c11.352,0.955,40.28,5.017,62.907,22.006l-18.84,41.86    c-10.095-9.278-29.677-22.369-61.526-25.076L324.609,179.578z M450.445,356.095c-15.548-1.86-62.311-9.816-85.223-39.71    c-24.007-31.321-63.824-39.757-83.27-42.029l7.007-15.568c14.073,1.182,55.195,7.127,77.797,36.617    c24.577,32.067,70,42.024,90.761,44.977L450.445,356.095z M464.05,325.869c-15.529-1.838-62.243-9.737-85.22-39.716    c-24.007-31.322-63.826-39.758-83.271-42.029l4.923-10.938c45.535,1.862,63.311,27.082,64.045,28.154    c1.417,2.13,3.8,3.393,6.331,3.393c0.207,0,0.416-0.008,0.625-0.025c1.491-0.123,2.873-0.69,4.017-1.573    c1.17,1.416,2.361,2.949,3.679,4.67c24.578,32.067,70,42.024,90.761,44.977L464.05,325.869z M476.472,298.267    c-15.528-1.838-62.243-9.737-85.22-39.715c-2.853-3.722-5.322-6.839-8.27-9.831l5.183-11.516c0.967,1.196,1.958,2.47,3.038,3.88    c24.578,32.068,70.001,42.024,90.762,44.977L476.472,298.267z M488.498,271.547c-15.528-1.838-62.243-9.736-85.221-39.716    c-2.853-3.723-5.323-6.84-8.27-9.831l4.298-9.548c1.063,1.209,2.105,2.445,3.101,3.744c24.575,32.064,69.996,42.025,90.761,44.979    L488.498,271.547z" fill="#0e69ab"/>
	</g>
</g>
<g>
</g>
<g>
</g>
<g>
</g>
<g>
</g>
<g>
</g>
<g>
</g>
<g>
</g>
<g>
</g>
<g>
</g>
<g>
</g>
<g>
</g>
<g>
</g>
<g>
</g>
<g>
</g>
<g>
</g>
</svg>
