<?xml version="1.0" encoding="utf-8"?>
<!-- Generator: Adobe Illustrator 18.0.0, SVG Export Plug-In . SVG Version: 6.00 Build 0)  -->
<!DOCTYPE svg PUBLIC "-//W3C//DTD SVG 1.1//EN" "http://www.w3.org/Graphics/SVG/1.1/DTD/svg11.dtd">
<svg version="1.1" id="Capa_1" xmlns="http://www.w3.org/2000/svg" xmlns:xlink="http://www.w3.org/1999/xlink" x="0px" y="0px"
	 viewBox="0 0 30 30" enable-background="new 0 0 30 30" xml:space="preserve">
<path fill="#0E69AB" d="M29.4,15.6l-0.8-1l-3.5,2.8l-4.6-2.7V9.5l3.7-2.9l-0.8-1l-3.6,2.9l-4.7-2.7V2H14v4L9.7,8.4L6.1,5.6l-0.8,1
	L9,9.5v5.2l-5.3,3.1v6L0,26.7l0.8,1l3.6-2.9l5.1,2.9l5.2-3l5.2,3l5.8-3.3v-5.8L29.4,15.6z M10.3,9.5l4.5-2.6l4.5,2.6v5.2l-4.5,2.6
	l-4.5-2.6V9.5z M14,23.7l-4.5,2.6l-4.5-2.6v-5.2l4.5-2.6l4.5,2.6V23.7z M24.5,23.7l-4.5,2.6l-4.5-2.6v-5.2l4.5-2.6l4.5,2.6
	L24.5,23.7L24.5,23.7z"/>
</svg>
