<?xml version="1.0" encoding="utf-8"?>
<!-- Generator: Adobe Illustrator 18.0.0, SVG Export Plug-In . SVG Version: 6.00 Build 0)  -->
<!DOCTYPE svg PUBLIC "-//W3C//DTD SVG 1.1//EN" "http://www.w3.org/Graphics/SVG/1.1/DTD/svg11.dtd">
<svg version="1.1" id="Layer_1" xmlns="http://www.w3.org/2000/svg" xmlns:xlink="http://www.w3.org/1999/xlink" x="0px" y="0px"
	 viewBox="0 240 30 30" enable-background="new 0 240 30 30" xml:space="preserve">
<g>
	<g>
		<g>
			<path fill="#0E69AB" d="M15.2,242.7c-6.9,0-12.5,5.6-12.5,12.5c0,6.9,5.6,12.5,12.5,12.5s12.5-5.6,12.5-12.5
				C27.7,248.2,22.1,242.7,15.2,242.7z M22.3,246.1c0.6,0.5,1.2,1.1,1.7,1.7c-0.2-0.1-0.5-0.1-0.7,0c-0.4,0.1-0.8,0.4-1.1,0.9
				c-0.1,0.1-0.2,0.2-0.3,0.2c-0.2,0-0.2-0.2-0.2-0.3C21.7,247.6,22.1,246.7,22.3,246.1z M7.2,246.8c1-1,2.2-1.8,3.5-2.3
				c0.5,0.4,2,1.5,3.1,2.9c0.2,0.2,0.2,0.4,0.1,0.6c-0.1,0.3-0.2,0.4-0.4,0.5c-1.2,0.5-2.7,1.3-3.3,2.3c-0.2,0.2-0.4,0.3-0.7,0.3
				c-1-0.3-1.7,0-2.2,0.8c-0.6,1,0.3,1.9,0.9,2.8c0.1,0.1,0.2,0.2,0.3,0.3c-0.8-0.4-1.2-1-1.7-1.7C6.1,252,5.7,250,7.2,246.8z
				 M3.6,255.2c0-2.3,0.7-4.4,1.7-6.2c-0.5,2.2-0.1,3.7,0.5,4.7c0.6,1.1,1.5,1.8,2.7,2.4c0.3,0.1,0.4,0.3,0.5,0.6c0,0,0,0.1,0,0.2
				c0.3,0.4,0.3,1.1,0.2,1.9c-0.2,1.3,0.4,2.4,1.4,3.1l0.9,0.7c-0.1,0.7-0.2,2.3,0.3,3.8C7.2,264.8,3.6,260.4,3.6,255.2z
				 M26.4,257.1c0-0.5-0.3-1-0.7-1.3c-0.4-0.3-0.9-0.4-1.3-0.3l0,0c-0.3,0.1-0.8,0-1-0.3c-0.3-0.3-0.5-0.6-0.6-0.9
				c-0.1-0.4-0.1-0.8-0.1-1.2c0-0.3-0.2-0.5-0.4-0.5c-0.3,0-0.5,0.2-0.5,0.4c0,0.4,0,0.9,0.1,1.3c0.1,0.7,0.4,1.2,0.9,1.6
				c0.5,0.4,1.1,0.5,1.7,0.4h0.1c0.3,0,0.4,0,0.6,0.2c0.2,0.2,0.2,0.3,0.3,0.6c0.1,0.8,0.3,1.5,0.5,2.1c-1.7,4.3-5.8,7.4-10.8,7.4
				c-0.4,0-0.9,0-1.3-0.1c0.2-0.2,0.3-0.3,0.6-0.6c0.2-0.2,0.2-0.5,0-0.7c-0.2-0.2-0.5-0.2-0.7,0c-0.3,0.3-0.6,0.6-0.8,0.8
				c-0.7-1.5-0.3-3.8-0.3-3.8c0-0.2-0.1-0.3-0.2-0.4l-1.2-0.8c-0.7-0.5-1.1-1.3-1-2.3c0.1-0.7,0.1-1.3,0-1.9
				c0.8-0.3,1.7-0.3,2.2-0.4c0.4-0.1,0.8,0.1,1.1,0.4c0.7,0.7,1.7,1.4,3.2,2.3c0.4,0.3,0.7,0.7,0.7,1.2s-0.1,1-0.3,1.3
				c-0.4,0.5-0.9,1.1-1.5,1.7c-0.2,0.2-0.2,0.5,0,0.7c0.1,0.1,0.2,0.1,0.3,0.1c0.2,0,0.3-0.1,0.3-0.2c0.6-0.7,1.2-1.3,1.6-1.8
				c0.5-0.6,0.7-1.3,0.6-2.1c-0.2-0.8-0.6-1.4-1.2-1.8c-1.3-0.8-2.3-1.6-3-2.2c-0.5-0.5-1.2-0.8-1.9-0.7c-0.6,0.1-1.4,0.2-2.2,0.4
				c-0.3-0.6-0.9-1.2-1.4-1.8c-0.7-0.8-1-1.3-0.8-1.7c0.2-0.3,0.4-0.6,1.1-0.3c0.6,0.2,1.2-0.1,1.7-0.6c0.5-0.6,1.6-1.3,3-1.9
				c0.5-0.3,0.8-0.6,0.9-1.1c0.2-0.5,0-1-0.3-1.4c-0.9-1.3-2-2.2-2.7-2.8c1.1-0.3,2.2-0.5,3.4-0.5c2.3,0,4.6,0.8,6.4,1.9
				c-0.3,0.6-0.8,1.8-0.8,3c0,0.6,0.5,1.1,1.1,1.2c0.1,0,0.1,0,0.2,0c0.5,0,0.9-0.3,1.1-0.7c0.2-0.3,0.3-0.3,0.4-0.4
				c0.2-0.1,0.7,0,1.6,0.6c-0.2,0-0.4,0-0.7,0c-0.3-0.1-0.8,0.1-1,0.3c-0.2,0.2-0.3,0.3-0.5,0.5c-0.2,0.2-0.2,0.5,0,0.7
				c0.1,0.1,0.2,0.2,0.3,0.2c0.2,0,0.3-0.1,0.3-0.2c0.1-0.2,0.2-0.3,0.4-0.3c0.2-0.1,0.3-0.2,0.4-0.2c0.5,0.1,1,0.1,1.2,0
				c0.8,1.5,1.1,3.2,1.1,4.9c0,0.8-0.1,1.7-0.2,2.5C26.4,257.5,26.4,257.2,26.4,257.1z"/>
			<path fill="#0E69AB" d="M15.4,264.5L15.4,264.5c-0.1-0.1-0.1-0.2-0.1-0.2l-0.1-0.1c0,0-0.1,0-0.1-0.1h-0.1c-0.1,0-0.1,0-0.2,0
				h-0.1c0,0-0.1,0-0.1,0.1c0,0-0.1,0-0.1,0.1l-0.1,0.1c0,0,0,0.1-0.1,0.1v0.1v0.1v0.1v0.1c0,0,0,0.1,0.1,0.1c0,0,0,0.1,0.1,0.1
				l0.1,0.1c0,0,0.1,0,0.1,0.1h0.1H15h0.1h0.1c0,0,0.1,0,0.1-0.1c0,0,0.1,0,0.1-0.1c0,0,0-0.1,0.1-0.1c0,0,0-0.1,0.1-0.1v-0.1v-0.1
				L15.4,264.5C15.5,264.6,15.5,264.6,15.4,264.5z"/>
			<path fill="#0E69AB" d="M17.4,244.7c-0.1-0.1-0.8-0.7-3.2-0.9c-0.3,0-0.5,0.2-0.5,0.3c-0.3,0.4,0,0.7,0.3,1.1
				c0.4,0.4,1,1.2,1.1,1.9c0,0.2,0.2,0.3,0.3,0.4h0.1c0.2,0,0.3-0.1,0.4-0.2l1.4-1.9C17.7,245.2,17.6,244.9,17.4,244.7z M15.8,246
				c-0.2-0.4-0.4-0.8-0.7-1.1c0.6,0.1,1,0.3,1.3,0.3L15.8,246z"/>
			<path fill="#0E69AB" d="M22.7,251.2C22.7,251.2,22.7,251.2,22.7,251.2c-0.1-0.1-0.2-0.1-0.2-0.1c-0.1,0-0.1,0-0.2,0h-0.1
				c0,0-0.1,0-0.1,0.1c0,0-0.1,0-0.1,0.1l-0.1,0.1c0,0,0,0.1-0.1,0.1v0.1v0.1v0.1v0.1c0,0,0,0.1,0.1,0.1c0,0,0,0.1,0.1,0.1
				c0.1,0.1,0.3,0.2,0.3,0.2h0.1h0.1c0,0,0.1,0,0.1-0.1c0,0,0.1,0,0.1-0.1l0.1-0.1c0,0,0-0.1,0.1-0.1v-0.1v-0.1
				C22.9,251.5,22.9,251.4,22.7,251.2L22.7,251.2z"/>
		</g>
	</g>
</g>
</svg>
