<?xml version="1.0" encoding="utf-8"?>
<!-- Generator: Adobe Illustrator 21.0.0, SVG Export Plug-In . SVG Version: 6.00 Build 0)  -->
<svg version="1.1" id="Modo_de_aislamiento" xmlns="http://www.w3.org/2000/svg" xmlns:xlink="http://www.w3.org/1999/xlink"
	 x="0px" y="0px" viewBox="0 0 82 74.1" style="enable-background:new 0 0 82 74.1;" xml:space="preserve">
<style type="text/css">
	.st0{fill:none;stroke:#FFFFFF;stroke-width:2.0944;stroke-miterlimit:10;}
	.st1{fill:#FFFFFF;}
</style>
<circle class="st0" cx="52" cy="47" r="25.1"/>
<circle class="st1" cx="10.8" cy="10.1" r="7.1"/>
<line class="st0" x1="10.8" y1="10.1" x2="33.2" y2="30.4"/>
<path class="st1" d="M67.5,35.8h-30c-0.8,0-1.5,0.7-1.5,1.5v17.3c0,0.8,0.7,1.5,1.5,1.5h1.2v6.3l6.3-6.3h22.5c0.8,0,1.5-0.7,1.5-1.5
	V37.3C68.9,36.5,68.3,35.8,67.5,35.8z M43.3,49.4c-1.8,0-3.3-1.5-3.3-3.3c0-1.8,1.5-3.3,3.3-3.3c1.8,0,3.3,1.5,3.3,3.3
	C46.6,47.9,45.1,49.4,43.3,49.4z M52.5,49.4c-1.8,0-3.3-1.5-3.3-3.3c0-1.8,1.5-3.3,3.3-3.3c1.8,0,3.3,1.5,3.3,3.3
	C55.8,47.9,54.3,49.4,52.5,49.4z M61.7,49.4c-1.8,0-3.3-1.5-3.3-3.3c0-1.8,1.5-3.3,3.3-3.3c1.8,0,3.3,1.5,3.3,3.3
	C65,47.9,63.5,49.4,61.7,49.4z"/>
</svg>
