<?xml version="1.0" encoding="utf-8"?>
<!-- Generator: Adobe Illustrator 21.0.0, SVG Export Plug-In . SVG Version: 6.00 Build 0)  -->
<svg version="1.1" id="Modo_de_aislamiento" xmlns="http://www.w3.org/2000/svg" xmlns:xlink="http://www.w3.org/1999/xlink"
	 x="0px" y="0px" viewBox="0 0 63 124.1" style="enable-background:new 0 0 63 124.1;" xml:space="preserve">
<style type="text/css">
	.st0{fill:none;stroke:#FFFFFF;stroke-width:2.0944;stroke-miterlimit:10;}
	.st1{fill:#FFFFFF;}
</style>
<circle class="st0" cx="32" cy="96" r="25.1"/>
<circle class="st1" cx="15.7" cy="10.2" r="7.1"/>
<polyline class="st0" points="15.1,10.2 15.1,55.6 22.8,73.1 "/>
<g>
	<path class="st1" d="M43.4,89.1c0-6.5-5.4-11.7-11.9-11.4c-6,0.2-10.9,5.3-11,11.3c0,4,1.9,7.5,5,9.6c1.2,0.8,1.9,2.1,1.9,3.5v3.6
		c0,2.2,1.1,2.4,4.6,2.4c2.9,0,4.6,0.1,4.6-2.2v-3.7c0-1.5,0.7-2.8,2-3.7C41.5,96.4,43.4,93,43.4,89.1z"/>
	<path class="st1" d="M35.6,111.3h-7.2c-0.5,0-0.9-0.4-0.9-0.9l0,0c0-0.5,0.4-0.9,0.9-0.9h7.2c0.5,0,0.9,0.4,0.9,0.9l0,0
		C36.5,110.9,36.1,111.3,35.6,111.3z"/>
	<path class="st1" d="M33.8,114.5h-3c-0.5,0-0.9-0.4-0.9-0.9l0,0c0-0.5,0.4-0.9,0.9-0.9h3c0.5,0,0.9,0.4,0.9,0.9l0,0
		C34.7,114.1,34.3,114.5,33.8,114.5z"/>
</g>
</svg>
