<?xml version="1.0" encoding="utf-8"?>
<!-- Generator: Adobe Illustrator 21.0.0, SVG Export Plug-In . SVG Version: 6.00 Build 0)  -->
<svg version="1.1" id="Modo_de_aislamiento" xmlns="http://www.w3.org/2000/svg" xmlns:xlink="http://www.w3.org/1999/xlink"
	 x="0px" y="0px" viewBox="0 0 60 127" style="enable-background:new 0 0 60 127;" xml:space="preserve">
<style type="text/css">
	.st0{fill:#FFFFFF;}
	.st1{fill:none;stroke:#FFFFFF;stroke-width:2.0944;stroke-miterlimit:10;}
</style>
<circle class="st0" cx="43.2" cy="12.1" r="7.1"/>
<circle class="st1" cx="29.7" cy="97.9" r="25.1"/>
<polyline class="st1" points="43.2,12.1 43.2,57.5 33.1,73 "/>
<path class="st0" d="M29.7,79.6c-10.1,0-18.3,8.2-18.3,18.3c0,10.1,8.2,18.3,18.3,18.3c10.1,0,18.3-8.2,18.3-18.3
	C48,87.8,39.8,79.6,29.7,79.6z M45.5,97.9c0,1.8-0.3,3.5-0.9,5.2c-0.5-1.4-1.4-3.4-2.6-5.5c0.8-2,1.4-4.3,1.7-6.8
	C44.9,92.9,45.5,95.3,45.5,97.9z M42,88c-0.1,2.8-0.6,5.2-1.3,7.5c-2.2-3.2-5.3-6.5-9.7-8.9c2.8-1.6,5.2-2.3,6.2-2.6
	C39,85,40.7,86.4,42,88z M36.4,106.4l3.7,3.5c-0.8,0.7-1.6,1.3-2.5,1.8c-2-0.4-3.7-0.9-5.4-1.5C33.7,109,35.1,107.8,36.4,106.4z
	 M30.3,109.2c-5.4-2.6-8.8-6.6-11-10.3c1-2.1,2.1-3.9,3.4-5.5l12.4,11.6C33.5,106.7,31.8,108.1,30.3,109.2z M22.6,90.6l-4.1-3.8
	c0.6-0.6,1.2-1,1.8-1.5c2.4,0.3,4.6,0.9,6.6,1.6C25.4,87.9,24,89.1,22.6,90.6z M21.2,92.1c-1.1,1.4-2.2,2.9-3.1,4.7
	c-1.3-2.8-2-5.2-2.3-6.5c0.4-0.7,0.9-1.4,1.3-2L21.2,92.1z M24,91.9c1.6-1.7,3.3-3.1,5-4.1c5.2,2.5,8.7,6.4,10.9,9.9
	c-1,2.2-2.2,4.2-3.5,5.9L24,91.9z M34.4,82.8c-1.5,0.6-3.4,1.4-5.5,2.7c-1.8-0.8-3.8-1.5-6-1.9c2.1-1,4.3-1.5,6.8-1.5
	C31.3,82.1,32.9,82.4,34.4,82.8z M14.6,93.2c0.5,1.6,1.3,3.6,2.5,5.8c-0.7,1.7-1.3,3.7-1.7,5.7c-1-2-1.5-4.3-1.5-6.7
	C13.8,96.3,14.1,94.7,14.6,93.2z M17,107.3c0.3-2.3,0.8-4.4,1.4-6.3c2.2,3.4,5.4,6.8,9.9,9.3c-2,1.2-3.7,1.9-4.6,2.2
	C21,111.5,18.7,109.7,17,107.3z M26.7,113.5c1.1-0.5,2.3-1.2,3.7-2.1c1.3,0.6,2.8,1.1,4.3,1.5c-1.6,0.5-3.2,0.8-5,0.8
	C28.6,113.8,27.6,113.7,26.7,113.5z M41.5,108.4l-3.8-3.6c1.2-1.5,2.3-3.2,3.3-5.1c1.6,3,2.2,5.4,2.4,6.1
	C42.9,106.7,42.2,107.6,41.5,108.4z"/>
</svg>
