<?xml version="1.0" encoding="utf-8"?>
<!-- Generator: Adobe Illustrator 21.0.0, SVG Export Plug-In . SVG Version: 6.00 Build 0)  -->
<svg version="1.1" id="Modo_de_aislamiento" xmlns="http://www.w3.org/2000/svg" xmlns:xlink="http://www.w3.org/1999/xlink"
	 x="0px" y="0px" viewBox="0 0 354 201" style="enable-background:new 0 0 354 201;" xml:space="preserve">
<style type="text/css">
	.st0{fill:#FFFFFF;}
</style>
<path class="st0" d="M60.9,75.8c2.3,0,4.2,0.5,6.1,0.7c7.5-30.1,34.4-52.7,67-52.7c10.1,0,20,2.3,28.6,6.6
	c11.7-15.1,29.7-25,50.2-25c27.8,0,51.3,18,60.1,42.8c3-0.5,5.8-0.8,9-0.8c35.3,0,63.8,28.5,63.8,63.6c0,35.5-28.6,64-63.8,64
	c-7.4,0-14.2-1.5-20.7-3.7c-9.2,12.4-24,20.4-40.7,20.4c-17.3,0-32.6-8.7-41.9-22c-9.3,13.3-24.5,22-41.9,22
	c-18.8,0-35-10-43.7-24.9c-8.9,7.2-19.8,11.3-32,11.3c-28.3,0-51.1-22.8-51.1-51.1C9.8,98.7,32.6,75.8,60.9,75.8z"/>
</svg>
